<?xml version="1.0" encoding="UTF-8" standalone="no"?>
<!DOCTYPE svg PUBLIC "-//W3C//DTD SVG 1.1//EN"
 "http://www.w3.org/Graphics/SVG/1.1/DTD/svg11.dtd">
<!-- Generated by graphviz version 2.36.0 (20140111.2315)
 -->
<!-- Title: models_diagram Pages: 1 -->
<svg width="1819pt" height="662pt"
 viewBox="0.00 0.00 1819.00 662.00" xmlns="http://www.w3.org/2000/svg" xmlns:xlink="http://www.w3.org/1999/xlink">
<g id="graph0" class="graph" transform="scale(1 1) rotate(0) translate(4 658)">
<title>models_diagram</title>
<polygon fill="none" stroke="none" points="-4,4 -4,-658 1815,-658 1815,4 -4,4"/>
<!-- _diagram_info -->
<g id="node1" class="node"><title>_diagram_info</title>
<text text-anchor="start" x="488" y="-639.6" font-family="Times,serif" font-size="13.00">Models diagram</text>
<text text-anchor="start" x="488" y="-625.6" font-family="Times,serif" font-size="13.00">Date: Mar 14 2016 &#45; 12:12</text>
<text text-anchor="start" x="488" y="-611.6" font-family="Times,serif" font-size="13.00">Migration version: 20160302124407</text>
<text text-anchor="start" x="488" y="-597.6" font-family="Times,serif" font-size="13.00">Generated by RailRoady 1.4.2</text>
<text text-anchor="start" x="488" y="-583.6" font-family="Times,serif" font-size="13.00">http://railroady.prestonlee.com</text>
</g>
<!-- Role -->
<g id="node2" class="node"><title>Role</title>
<ellipse fill="none" stroke="black" cx="268" cy="-306" rx="26.949" ry="18"/>
<text text-anchor="middle" x="268" y="-302.3" font-family="Times,serif" font-size="14.00">Role</text>
</g>
<!-- User -->
<g id="node8" class="node"><title>User</title>
<ellipse fill="none" stroke="black" cx="268" cy="-234" rx="26.949" ry="18"/>
<text text-anchor="middle" x="268" y="-230.3" font-family="Times,serif" font-size="14.00">User</text>
</g>
<!-- Role&#45;&gt;User -->
<g id="edge1" class="edge"><title>Role&#45;&gt;User</title>
<path fill="none" stroke="#39dc8e" d="M268,-279.64C268,-274.063 268,-268.132 268,-262.476"/>
<ellipse fill="none" stroke="#39dc8e" cx="268" cy="-283.697" rx="4" ry="4"/>
<polygon fill="#39dc8e" stroke="#39dc8e" points="268,-262.104 272.5,-252.104 268,-257.104 268,-252.104 268,-252.104 268,-252.104 268,-257.104 263.5,-252.104 268,-262.104 268,-262.104"/>
</g>
<!-- Course -->
<g id="node3" class="node"><title>Course</title>
<ellipse fill="none" stroke="black" cx="760" cy="-522" rx="35.6194" ry="18"/>
<text text-anchor="middle" x="760" y="-518.3" font-family="Times,serif" font-size="14.00">Course</text>
</g>
<!-- Year -->
<g id="node22" class="node"><title>Year</title>
<ellipse fill="none" stroke="black" cx="760" cy="-450" rx="27.4223" ry="18"/>
<text text-anchor="middle" x="760" y="-446.3" font-family="Times,serif" font-size="14.00">Year</text>
</g>
<!-- Course&#45;&gt;Year -->
<g id="edge2" class="edge"><title>Course&#45;&gt;Year</title>
<path fill="none" stroke="#32c730" d="M760,-495.64C760,-490.063 760,-484.132 760,-478.476"/>
<ellipse fill="none" stroke="#32c730" cx="760" cy="-499.697" rx="4" ry="4"/>
<polygon fill="#32c730" stroke="#32c730" points="760,-478.104 764.5,-468.104 760,-473.104 760,-468.104 760,-468.104 760,-468.104 760,-473.104 755.5,-468.104 760,-478.104 760,-478.104"/>
</g>
<!-- Sms -->
<g id="node4" class="node"><title>Sms</title>
<ellipse fill="none" stroke="black" cx="853" cy="-615" rx="27" ry="18"/>
<text text-anchor="middle" x="853" y="-611.3" font-family="Times,serif" font-size="14.00">Sms</text>
</g>
<!-- Cat -->
<g id="node5" class="node"><title>Cat</title>
<ellipse fill="none" stroke="black" cx="925" cy="-615" rx="27" ry="18"/>
<text text-anchor="middle" x="925" y="-611.3" font-family="Times,serif" font-size="14.00">Cat</text>
</g>
<!-- PaymentActivity -->
<g id="node6" class="node"><title>PaymentActivity</title>
<ellipse fill="none" stroke="black" cx="523" cy="-162" rx="70.2668" ry="18"/>
<text text-anchor="middle" x="523" y="-158.3" font-family="Times,serif" font-size="14.00">PaymentActivity</text>
</g>
<!-- Answer -->
<g id="node7" class="node"><title>Answer</title>
<ellipse fill="none" stroke="black" cx="815" cy="-90" rx="38.0212" ry="18"/>
<text text-anchor="middle" x="815" y="-86.3" font-family="Times,serif" font-size="14.00">Answer</text>
</g>
<!-- User&#45;&gt;PaymentActivity -->
<g id="edge9" class="edge"><title>User&#45;&gt;PaymentActivity</title>
<path fill="none" stroke="#111492" d="M300.851,-223.982C342.86,-212.45 416.244,-192.306 467.116,-178.341"/>
<ellipse fill="none" stroke="#111492" cx="296.772" cy="-225.102" rx="4.00001" ry="4.00001"/>
<polygon fill="#111492" stroke="#111492" points="467.33,-178.282 478.165,-179.974 472.152,-176.958 476.974,-175.635 476.974,-175.635 476.974,-175.635 472.152,-176.958 475.782,-171.295 467.33,-178.282 467.33,-178.282"/>
</g>
<!-- Purchase -->
<g id="node10" class="node"><title>Purchase</title>
<ellipse fill="none" stroke="black" cx="392" cy="-90" rx="42.3701" ry="18"/>
<text text-anchor="middle" x="392" y="-86.3" font-family="Times,serif" font-size="14.00">Purchase</text>
</g>
<!-- User&#45;&gt;Purchase -->
<g id="edge4" class="edge"><title>User&#45;&gt;Purchase</title>
<path fill="none" stroke="#86b0f2" d="M238.457,-219.966C222.452,-211.181 204.129,-197.908 195,-180 187.734,-165.745 185.266,-156.699 195,-144 212.776,-120.81 289.475,-105.496 341.758,-97.5389"/>
<ellipse fill="none" stroke="#86b0f2" cx="242.057" cy="-221.84" rx="4.00002" ry="4.00002"/>
<polygon fill="#86b0f2" stroke="#86b0f2" points="341.971,-97.5074 352.522,-100.497 346.918,-96.7765 351.864,-96.0455 351.864,-96.0455 351.864,-96.0455 346.918,-96.7765 351.206,-91.5938 341.971,-97.5074 341.971,-97.5074"/>
</g>
<!-- QuestionActivity -->
<g id="node12" class="node"><title>QuestionActivity</title>
<ellipse fill="none" stroke="black" cx="459" cy="-18" rx="71.2405" ry="18"/>
<text text-anchor="middle" x="459" y="-14.3" font-family="Times,serif" font-size="14.00">QuestionActivity</text>
</g>
<!-- User&#45;&gt;QuestionActivity -->
<g id="edge8" class="edge"><title>User&#45;&gt;QuestionActivity</title>
<path fill="none" stroke="#62674a" d="M236.498,-221.863C217.903,-213.468 195.927,-199.942 185,-180 177.312,-165.968 176.377,-157.477 185,-144 229.427,-74.5646 323.053,-43.2439 388.43,-29.4269"/>
<ellipse fill="none" stroke="#62674a" cx="240.538" cy="-223.583" rx="4.00001" ry="4.00001"/>
<polygon fill="#62674a" stroke="#62674a" points="388.463,-29.4201 399.158,-31.845 393.364,-28.4274 398.264,-27.4346 398.264,-27.4346 398.264,-27.4346 393.364,-28.4274 397.371,-23.0242 388.463,-29.4201 388.463,-29.4201"/>
</g>
<!-- UnitActivity -->
<g id="node17" class="node"><title>UnitActivity</title>
<ellipse fill="none" stroke="black" cx="55" cy="-162" rx="55.3682" ry="18"/>
<text text-anchor="middle" x="55" y="-158.3" font-family="Times,serif" font-size="14.00">UnitActivity</text>
</g>
<!-- User&#45;&gt;UnitActivity -->
<g id="edge6" class="edge"><title>User&#45;&gt;UnitActivity</title>
<path fill="none" stroke="#b2add0" d="M236.201,-222.549C200.727,-210.892 142.981,-191.914 102.227,-178.521"/>
<ellipse fill="none" stroke="#b2add0" cx="240.18" cy="-223.857" rx="4.00001" ry="4.00001"/>
<polygon fill="#b2add0" stroke="#b2add0" points="102.014,-178.451 93.9193,-171.054 97.2644,-176.89 92.5144,-175.329 92.5144,-175.329 92.5144,-175.329 97.2644,-176.89 91.1094,-179.604 102.014,-178.451 102.014,-178.451"/>
</g>
<!-- TopicActivity -->
<g id="node20" class="node"><title>TopicActivity</title>
<ellipse fill="none" stroke="black" cx="672" cy="-162" rx="59.1941" ry="18"/>
<text text-anchor="middle" x="672" y="-158.3" font-family="Times,serif" font-size="14.00">TopicActivity</text>
</g>
<!-- User&#45;&gt;TopicActivity -->
<g id="edge7" class="edge"><title>User&#45;&gt;TopicActivity</title>
<path fill="none" stroke="#f73ed0" d="M302.66,-228.442C363.512,-220.23 493.413,-201.764 602,-180 607.288,-178.94 612.781,-177.755 618.26,-176.517"/>
<ellipse fill="none" stroke="#f73ed0" cx="298.506" cy="-229" rx="4.00001" ry="4.00001"/>
<polygon fill="#f73ed0" stroke="#f73ed0" points="618.316,-176.504 629.074,-178.63 623.187,-175.375 628.058,-174.246 628.058,-174.246 628.058,-174.246 623.187,-175.375 627.043,-169.862 618.316,-176.504 618.316,-176.504"/>
</g>
<!-- FailedPayment -->
<g id="node24" class="node"><title>FailedPayment</title>
<ellipse fill="none" stroke="black" cx="268" cy="-162" rx="63.5411" ry="18"/>
<text text-anchor="middle" x="268" y="-158.3" font-family="Times,serif" font-size="14.00">FailedPayment</text>
</g>
<!-- User&#45;&gt;FailedPayment -->
<g id="edge5" class="edge"><title>User&#45;&gt;FailedPayment</title>
<path fill="none" stroke="#ad9d1c" d="M268,-207.64C268,-202.063 268,-196.132 268,-190.476"/>
<ellipse fill="none" stroke="#ad9d1c" cx="268" cy="-211.697" rx="4" ry="4"/>
<polygon fill="#ad9d1c" stroke="#ad9d1c" points="268,-190.104 272.5,-180.104 268,-185.104 268,-180.104 268,-180.104 268,-180.104 268,-185.104 263.5,-180.104 268,-190.104 268,-190.104"/>
</g>
<!-- Payment -->
<g id="node26" class="node"><title>Payment</title>
<ellipse fill="none" stroke="black" cx="392" cy="-162" rx="42.3701" ry="18"/>
<text text-anchor="middle" x="392" y="-158.3" font-family="Times,serif" font-size="14.00">Payment</text>
</g>
<!-- User&#45;&gt;Payment -->
<g id="edge3" class="edge"><title>User&#45;&gt;Payment</title>
<path fill="none" stroke="#88a0be" d="M295.171,-217.661C313.862,-207.11 338.802,-193.031 358.691,-181.804"/>
<ellipse fill="none" stroke="#88a0be" cx="291.406" cy="-219.787" rx="4.00002" ry="4.00002"/>
<polygon fill="#88a0be" stroke="#88a0be" points="358.724,-181.785 369.644,-180.788 363.078,-179.327 367.432,-176.869 367.432,-176.869 367.432,-176.869 363.078,-179.327 365.22,-172.95 358.724,-181.785 358.724,-181.785"/>
</g>
<!-- Unit -->
<g id="node9" class="node"><title>Unit</title>
<ellipse fill="none" stroke="black" cx="760" cy="-306" rx="27" ry="18"/>
<text text-anchor="middle" x="760" y="-302.3" font-family="Times,serif" font-size="14.00">Unit</text>
</g>
<!-- Topic -->
<g id="node11" class="node"><title>Topic</title>
<ellipse fill="none" stroke="black" cx="760" cy="-234" rx="31.2965" ry="18"/>
<text text-anchor="middle" x="760" y="-230.3" font-family="Times,serif" font-size="14.00">Topic</text>
</g>
<!-- Unit&#45;&gt;Topic -->
<g id="edge10" class="edge"><title>Unit&#45;&gt;Topic</title>
<path fill="none" stroke="#5d1bf1" d="M760,-279.64C760,-274.063 760,-268.132 760,-262.476"/>
<ellipse fill="none" stroke="#5d1bf1" cx="760" cy="-283.697" rx="4" ry="4"/>
<polygon fill="#5d1bf1" stroke="#5d1bf1" points="760,-262.104 764.5,-252.104 760,-257.104 760,-252.104 760,-252.104 760,-252.104 760,-257.104 755.5,-252.104 760,-262.104 760,-262.104"/>
</g>
<!-- Unit&#45;&gt;UnitActivity -->
<g id="edge12" class="edge"><title>Unit&#45;&gt;UnitActivity</title>
<path fill="none" stroke="#3d74a6" d="M724.832,-303.145C622.315,-297.472 325.143,-279.084 232,-252 178.337,-236.396 121.492,-204.748 87.1207,-183.707"/>
<ellipse fill="none" stroke="#3d74a6" cx="729.014" cy="-303.374" rx="4" ry="4"/>
<polygon fill="#3d74a6" stroke="#3d74a6" points="86.9622,-183.609 80.8343,-174.515 82.7127,-180.974 78.4631,-178.339 78.4631,-178.339 78.4631,-178.339 82.7127,-180.974 76.0919,-182.164 86.9622,-183.609 86.9622,-183.609"/>
</g>
<!-- Exam -->
<g id="node25" class="node"><title>Exam</title>
<ellipse fill="none" stroke="black" cx="960" cy="-162" rx="31.2735" ry="18"/>
<text text-anchor="middle" x="960" y="-158.3" font-family="Times,serif" font-size="14.00">Exam</text>
</g>
<!-- Unit&#45;&gt;Exam -->
<g id="edge11" class="edge"><title>Unit&#45;&gt;Exam</title>
<path fill="none" stroke="#d84ea6" d="M784.342,-287.717C821.88,-261.065 893.648,-210.11 932.828,-182.292"/>
<ellipse fill="none" stroke="#d84ea6" cx="781.01" cy="-290.083" rx="4.00002" ry="4.00002"/>
<polygon fill="#d84ea6" stroke="#d84ea6" points="932.976,-182.187 943.735,-180.067 937.053,-179.293 941.13,-176.398 941.13,-176.398 941.13,-176.398 937.053,-179.293 938.524,-172.729 932.976,-182.187 932.976,-182.187"/>
</g>
<!-- Topic&#45;&gt;PaymentActivity -->
<g id="edge17" class="edge"><title>Topic&#45;&gt;PaymentActivity</title>
<path fill="none" stroke="#e71984" d="M725.076,-222.685C686.02,-211.149 622.293,-192.327 576.848,-178.904"/>
<ellipse fill="none" stroke="#e71984" cx="728.977" cy="-223.837" rx="4.00001" ry="4.00001"/>
<polygon fill="#e71984" stroke="#e71984" points="576.747,-178.875 568.431,-171.726 571.952,-177.458 567.157,-176.042 567.157,-176.042 567.157,-176.042 571.952,-177.458 565.882,-180.358 576.747,-178.875 576.747,-178.875"/>
</g>
<!-- Topic&#45;&gt;Purchase -->
<g id="edge14" class="edge"><title>Topic&#45;&gt;Purchase</title>
<path fill="none" stroke="#8927ce" d="M761.482,-207.685C761.189,-187.509 757.229,-160.065 740,-144 698.069,-104.902 530.674,-94.6454 444.243,-91.9555"/>
<ellipse fill="none" stroke="#8927ce" cx="761.446" cy="-211.832" rx="4" ry="4"/>
<polygon fill="#8927ce" stroke="#8927ce" points="444.114,-91.9519 434.248,-87.1655 439.116,-91.8078 434.118,-91.6636 434.118,-91.6636 434.118,-91.6636 439.116,-91.8078 433.989,-96.1617 444.114,-91.9519 444.114,-91.9519"/>
</g>
<!-- Subtopic -->
<g id="node19" class="node"><title>Subtopic</title>
<ellipse fill="none" stroke="black" cx="830" cy="-162" rx="42.3701" ry="18"/>
<text text-anchor="middle" x="830" y="-158.3" font-family="Times,serif" font-size="14.00">Subtopic</text>
</g>
<!-- Topic&#45;&gt;Subtopic -->
<g id="edge13" class="edge"><title>Topic&#45;&gt;Subtopic</title>
<path fill="none" stroke="#9ae6e0" d="M780.556,-212.444C788.868,-204.132 798.498,-194.502 807.039,-185.961"/>
<ellipse fill="none" stroke="#9ae6e0" cx="777.674" cy="-215.326" rx="4.00002" ry="4.00002"/>
<polygon fill="#9ae6e0" stroke="#9ae6e0" points="807.132,-185.868 817.385,-181.979 810.668,-182.332 814.203,-178.797 814.203,-178.797 814.203,-178.797 810.668,-182.332 811.021,-175.615 807.132,-185.868 807.132,-185.868"/>
</g>
<!-- Topic&#45;&gt;TopicActivity -->
<g id="edge16" class="edge"><title>Topic&#45;&gt;TopicActivity</title>
<path fill="none" stroke="#6bafc8" d="M735.769,-213.725C724.766,-204.973 711.681,-194.564 700.235,-185.46"/>
<ellipse fill="none" stroke="#6bafc8" cx="739.061" cy="-216.344" rx="4.00002" ry="4.00002"/>
<polygon fill="#6bafc8" stroke="#6bafc8" points="700.07,-185.329 695.046,-175.582 696.157,-182.216 692.244,-179.103 692.244,-179.103 692.244,-179.103 696.157,-182.216 689.443,-182.625 700.07,-185.329 700.07,-185.329"/>
</g>
<!-- Question -->
<g id="node21" class="node"><title>Question</title>
<ellipse fill="none" stroke="black" cx="914" cy="-90" rx="42.3701" ry="18"/>
<text text-anchor="middle" x="914" y="-86.3" font-family="Times,serif" font-size="14.00">Question</text>
</g>
<!-- Topic&#45;&gt;Question -->
<g id="edge15" class="edge"><title>Topic&#45;&gt;Question</title>
<path fill="none" stroke="#873333" d="M798.636,-224.542C825.007,-216.945 859.016,-203.293 881,-180 897.034,-163.012 905.429,-137.55 909.729,-118.207"/>
<polygon fill="#873333" stroke="#873333" points="798.597,-224.553 787.768,-222.822 793.77,-225.859 788.944,-227.166 788.944,-227.166 788.944,-227.166 793.77,-225.859 790.12,-231.509 798.597,-224.553 798.597,-224.553"/>
<polygon fill="#873333" stroke="#873333" points="909.772,-117.991 916.133,-109.059 910.745,-113.087 911.719,-108.182 911.719,-108.182 911.719,-108.182 910.745,-113.087 907.305,-107.306 909.772,-117.991 909.772,-117.991"/>
</g>
<!-- Price -->
<g id="node13" class="node"><title>Price</title>
<ellipse fill="none" stroke="black" cx="999" cy="-615" rx="28.3955" ry="18"/>
<text text-anchor="middle" x="999" y="-611.3" font-family="Times,serif" font-size="14.00">Price</text>
</g>
<!-- Ckeditor::Picture -->
<g id="node14" class="node"><title>Ckeditor::Picture</title>
<ellipse fill="none" stroke="black" cx="1117" cy="-615" rx="71.2405" ry="18"/>
<text text-anchor="middle" x="1117" y="-611.3" font-family="Times,serif" font-size="14.00">Ckeditor::Picture</text>
</g>
<!-- Ckeditor::AttachmentFile -->
<g id="node15" class="node"><title>Ckeditor::AttachmentFile</title>
<ellipse fill="none" stroke="black" cx="1308" cy="-615" rx="101.087" ry="18"/>
<text text-anchor="middle" x="1308" y="-611.3" font-family="Times,serif" font-size="14.00">Ckeditor::AttachmentFile</text>
</g>
<!-- Ckeditor::Asset -->
<g id="node16" class="node"><title>Ckeditor::Asset</title>
<ellipse fill="none" stroke="black" cx="1493" cy="-615" rx="65.4659" ry="18"/>
<text text-anchor="middle" x="1493" y="-611.3" font-family="Times,serif" font-size="14.00">Ckeditor::Asset</text>
</g>
<!-- Term -->
<g id="node18" class="node"><title>Term</title>
<ellipse fill="none" stroke="black" cx="1607" cy="-615" rx="30.3206" ry="18"/>
<text text-anchor="middle" x="1607" y="-611.3" font-family="Times,serif" font-size="14.00">Term</text>
</g>
<!-- Subtopic&#45;&gt;Answer -->
<g id="edge19" class="edge"><title>Subtopic&#45;&gt;Answer</title>
<path fill="none" stroke="#269871" d="M824.215,-134.005C823.116,-128.873 821.964,-123.499 820.862,-118.355"/>
<polygon fill="#269871" stroke="#269871" points="824.274,-134.277 821.969,-144.998 825.321,-139.166 826.369,-144.055 826.369,-144.055 826.369,-144.055 825.321,-139.166 830.769,-143.112 824.274,-134.277 824.274,-134.277"/>
<polygon fill="#269871" stroke="#269871" points="820.797,-118.053 823.102,-107.332 819.75,-113.164 818.702,-108.275 818.702,-108.275 818.702,-108.275 819.75,-113.164 814.302,-109.218 820.797,-118.053 820.797,-118.053"/>
</g>
<!-- Subtopic&#45;&gt;Question -->
<g id="edge18" class="edge"><title>Subtopic&#45;&gt;Question</title>
<path fill="none" stroke="#9a5d7b" d="M854.829,-140.309C865.269,-131.609 877.419,-121.484 887.984,-112.68"/>
<ellipse fill="none" stroke="#9a5d7b" cx="851.715" cy="-142.904" rx="4.00002" ry="4.00002"/>
<polygon fill="#9a5d7b" stroke="#9a5d7b" points="888.017,-112.653 898.58,-109.708 891.858,-109.452 895.699,-106.251 895.699,-106.251 895.699,-106.251 891.858,-109.452 892.818,-102.794 888.017,-112.653 888.017,-112.653"/>
</g>
<!-- Question&#45;&gt;QuestionActivity -->
<g id="edge21" class="edge"><title>Question&#45;&gt;QuestionActivity</title>
<path fill="none" stroke="#fb6f7e" d="M875.106,-75.4238C870.717,-74.1494 866.284,-72.9731 862,-72 750.308,-46.6284 618.249,-32.1241 536.546,-24.9057"/>
<ellipse fill="none" stroke="#fb6f7e" cx="879.089" cy="-76.6362" rx="4.00001" ry="4.00001"/>
<polygon fill="#fb6f7e" stroke="#fb6f7e" points="536.307,-24.8851 526.734,-19.5361 531.326,-24.4522 526.345,-24.0193 526.345,-24.0193 526.345,-24.0193 531.326,-24.4522 525.955,-28.5024 536.307,-24.8851 536.307,-24.8851"/>
</g>
<!-- Response -->
<g id="node23" class="node"><title>Response</title>
<ellipse fill="none" stroke="black" cx="914" cy="-18" rx="44.2946" ry="18"/>
<text text-anchor="middle" x="914" y="-14.3" font-family="Times,serif" font-size="14.00">Response</text>
</g>
<!-- Question&#45;&gt;Response -->
<g id="edge20" class="edge"><title>Question&#45;&gt;Response</title>
<path fill="none" stroke="#7945a5" d="M914,-63.6398C914,-57.348 914,-50.6053 914,-44.3156"/>
<ellipse fill="none" stroke="#7945a5" cx="914" cy="-67.6966" rx="4" ry="4"/>
<ellipse fill="#7945a5" stroke="#7945a5" cx="914" cy="-40.1043" rx="4" ry="4"/>
</g>
<!-- Semester -->
<g id="node30" class="node"><title>Semester</title>
<ellipse fill="none" stroke="black" cx="760" cy="-378" rx="43.319" ry="18"/>
<text text-anchor="middle" x="760" y="-374.3" font-family="Times,serif" font-size="14.00">Semester</text>
</g>
<!-- Year&#45;&gt;Semester -->
<g id="edge22" class="edge"><title>Year&#45;&gt;Semester</title>
<path fill="none" stroke="#8185e1" d="M760,-423.64C760,-418.063 760,-412.132 760,-406.476"/>
<ellipse fill="none" stroke="#8185e1" cx="760" cy="-427.697" rx="4" ry="4"/>
<polygon fill="#8185e1" stroke="#8185e1" points="760,-406.104 764.5,-396.104 760,-401.104 760,-396.104 760,-396.104 760,-396.104 760,-401.104 755.5,-396.104 760,-406.104 760,-406.104"/>
</g>
<!-- Exam&#45;&gt;Answer -->
<g id="edge24" class="edge"><title>Exam&#45;&gt;Answer</title>
<path fill="none" stroke="#dfdb8c" d="M927.544,-145.331C904.494,-134.204 873.577,-119.279 849.98,-107.887"/>
<polygon fill="#dfdb8c" stroke="#dfdb8c" points="927.698,-145.406 934.747,-153.806 932.2,-147.58 936.703,-149.753 936.703,-149.753 936.703,-149.753 932.2,-147.58 938.66,-145.701 927.698,-145.406 927.698,-145.406"/>
<polygon fill="#dfdb8c" stroke="#dfdb8c" points="849.689,-107.746 842.639,-99.3462 845.186,-105.572 840.683,-103.399 840.683,-103.399 840.683,-103.399 845.186,-105.572 838.727,-107.451 849.689,-107.746 849.689,-107.746"/>
</g>
<!-- Exam&#45;&gt;Question -->
<g id="edge23" class="edge"><title>Exam&#45;&gt;Question</title>
<path fill="none" stroke="#2ebfa7" d="M944.803,-137.874C940.236,-130.924 935.203,-123.265 930.552,-116.188"/>
<ellipse fill="none" stroke="#2ebfa7" cx="947.134" cy="-141.422" rx="4.00002" ry="4.00002"/>
<polygon fill="#2ebfa7" stroke="#2ebfa7" points="930.422,-115.99 928.691,-105.162 927.676,-111.812 924.931,-107.633 924.931,-107.633 924.931,-107.633 927.676,-111.812 921.17,-110.105 930.422,-115.99 930.422,-115.99"/>
</g>
<!-- Payment&#45;&gt;Purchase -->
<g id="edge25" class="edge"><title>Payment&#45;&gt;Purchase</title>
<path fill="none" stroke="#26d7f6" d="M392,-135.64C392,-129.348 392,-122.605 392,-116.316"/>
<ellipse fill="none" stroke="#26d7f6" cx="392" cy="-139.697" rx="4" ry="4"/>
<ellipse fill="#26d7f6" stroke="#26d7f6" cx="392" cy="-112.104" rx="4" ry="4"/>
</g>
<!-- OverPay -->
<g id="node27" class="node"><title>OverPay</title>
<ellipse fill="none" stroke="black" cx="1697" cy="-615" rx="41.394" ry="18"/>
<text text-anchor="middle" x="1697" y="-611.3" font-family="Times,serif" font-size="14.00">OverPay</text>
</g>
<!-- Ability -->
<g id="node28" class="node"><title>Ability</title>
<polygon fill="none" stroke="black" points="1811.25,-633 1756.75,-633 1756.75,-597 1811.25,-597 1811.25,-633"/>
<text text-anchor="middle" x="1784" y="-611.3" font-family="Times,serif" font-size="14.00">Ability</text>
</g>
<!-- University -->
<g id="node29" class="node"><title>University</title>
<ellipse fill="none" stroke="black" cx="760" cy="-615" rx="48.1437" ry="18"/>
<text text-anchor="middle" x="760" y="-611.3" font-family="Times,serif" font-size="14.00">University</text>
</g>
<!-- University&#45;&gt;Course -->
<g id="edge26" class="edge"><title>University&#45;&gt;Course</title>
<path fill="none" stroke="#13e2a8" d="M760,-588.729C760,-576.725 760,-562.362 760,-550.129"/>
<ellipse fill="none" stroke="#13e2a8" cx="760" cy="-592.884" rx="4" ry="4"/>
<polygon fill="#13e2a8" stroke="#13e2a8" points="760,-550.04 764.5,-540.04 760,-545.04 760,-540.04 760,-540.04 760,-540.04 760,-545.04 755.5,-540.04 760,-550.04 760,-550.04"/>
</g>
<!-- Semester&#45;&gt;Unit -->
<g id="edge27" class="edge"><title>Semester&#45;&gt;Unit</title>
<path fill="none" stroke="#baeb21" d="M760,-351.64C760,-346.063 760,-340.132 760,-334.476"/>
<ellipse fill="none" stroke="#baeb21" cx="760" cy="-355.697" rx="4" ry="4"/>
<polygon fill="#baeb21" stroke="#baeb21" points="760,-334.104 764.5,-324.104 760,-329.104 760,-324.104 760,-324.104 760,-324.104 760,-329.104 755.5,-324.104 760,-334.104 760,-334.104"/>
</g>
</g>
</svg>
